<svg width="24" height="24" viewBox="0 0 24 24" fill="none" xmlns="http://www.w3.org/2000/svg">
  <g clip-path="url(#clip0_724_705)">
    <path
        d="M12 4.88501C8.78303 4.88501 5.63893 4.40857 2.64788 3.49023L0.290039 11.1366L1.20747 11.3898L2.12584 11.6404C2.12584 11.6404 2.80276 11.122 3.37308 10.0962C3.81951 9.29263 4.57297 7.89692 4.64495 7.76299C5.22895 7.8869 5.81841 7.99624 6.41333 8.09005C6.44067 8.28684 6.65388 9.81828 6.78872 10.7111C6.96454 11.8718 7.41826 12.5942 7.41826 12.5942L8.36576 12.6799L9.31329 12.7628C9.31329 12.7628 9.88727 12.1323 10.2662 11.0209C10.5532 10.1791 11.0224 8.74328 11.0963 8.51826C11.3969 8.52555 11.6985 8.52918 12 8.52918C12.3016 8.52918 12.6031 8.52555 12.9038 8.51826C12.9776 8.74418 13.4468 10.18 13.7338 11.0209C14.1128 12.1323 14.6868 12.7628 14.6868 12.7628L15.6343 12.6799L16.5818 12.5942C16.5818 12.5942 17.0355 11.8727 17.2114 10.7111C17.3471 9.81828 17.5594 8.28684 17.5867 8.09005C18.1807 7.9953 18.7702 7.8869 19.3551 7.76299C19.4271 7.89692 20.1796 9.2917 20.627 10.0962C21.1973 11.1229 21.8742 11.6404 21.8742 11.6404L22.7926 11.3898L23.71 11.1366L21.3522 3.49023C18.3611 4.40857 15.2179 4.88501 12 4.88501Z"
        fill="white"/>
    <path
        d="M21.6722 16.8052L21.3287 16.715C21.1556 16.6676 20.9816 16.622 20.8076 16.5765C20.8076 16.5555 20.7284 14.8701 20.671 13.9108C20.6008 12.7383 20.2154 11.9785 20.2154 11.9785L19.2797 11.8063L18.3431 11.6377C18.3431 11.6377 17.7145 12.2135 17.2362 13.2858C16.8672 14.113 16.2523 15.5397 16.1766 15.7155C15.5835 15.6454 14.9859 15.5907 14.3836 15.5506C14.339 15.3557 13.9928 13.8497 13.7796 12.9724C13.5026 11.8318 12.987 11.1521 12.987 11.1521L12.0358 11.1494H11.0846C11.0846 11.1494 10.5681 11.8281 10.2884 12.9688C10.0734 13.847 9.72351 15.3548 9.67886 15.5461C9.07755 15.5853 8.4799 15.639 7.88678 15.7082C7.81753 15.5461 7.20256 14.1067 6.83451 13.2731C6.35981 12.199 5.73299 11.6213 5.73299 11.6213L4.79552 11.7872L3.85894 11.9557C3.85894 11.9557 3.4708 12.7146 3.39702 13.8862C3.33596 14.851 3.25123 16.5519 3.25123 16.5519L2.38663 16.7769L1.57031 17.0101L1.57398 17.0229H1.6104C1.59948 17.0265 1.58852 17.0302 1.57671 17.0338L2.64902 20.5113C5.64007 19.5929 8.78327 19.1155 12.0012 19.1155C15.2191 19.1155 18.3623 19.592 21.3533 20.5113L22.4257 17.0356C22.2972 16.9965 22.1697 16.9555 22.0403 16.9172C21.9173 16.8771 21.787 16.837 21.6731 16.8061"
        fill="white"/>
  </g>
  <defs>
    <clipPath id="clip0_724_705">
      <rect width="24" height="24" fill="white"/>
    </clipPath>
  </defs>
</svg>
