<svg viewBox="0 0 108 22" width="108" height="22" xmlns="http://www.w3.org/2000/svg">
  <path
      d="M34.502 10.8414C34.502 15.9934 38.4654 18.7647 43.2871 18.7647C47.7923 18.7647 51.7037 17.1855 51.7037 17.1855L51.655 12.1612L51.6545 12.1616L51.6423 10.9055H46.5739C46.5739 10.9055 46.7871 12.5522 46.7871 13.818C46.7871 13.9567 46.7871 14.0953 46.7871 14.2329C45.9806 14.4225 45.1203 14.5458 44.2422 14.5458C41.0737 14.5458 40.2627 12.6643 40.2627 10.8415C40.2627 8.54178 41.4454 7.13715 44.1662 7.13715C48.4056 7.13715 51.7038 9.13803 51.7038 9.13803V4.49718C51.7038 4.49718 47.7923 2.91797 43.2872 2.91797C38.0102 2.91797 34.502 5.68935 34.502 10.8414Z"
      fill="white"
  />
  <path
      d="M107.395 9.41064C107.395 5.00879 104.23 3.55762 99.5512 3.55762C97.7825 3.55762 90.5117 3.55762 90.5117 3.55762C90.5117 3.55762 90.7154 8.04502 90.7154 10.8411C90.7154 13.6372 90.5117 18.1246 90.5117 18.1246H95.6617V14.2013C96.3641 14.2013 97.2752 14.2013 98.2977 14.2013L101.349 18.1246H107.089L103.754 13.8363C105.684 13.3013 107.395 12.0639 107.395 9.41064ZM99.097 11.7556C97.5353 11.7556 96.4259 11.7556 95.6618 11.7556V7.43606C96.4259 7.43606 97.5353 7.43606 99.097 7.43606C101.65 7.43606 102.228 8.43769 102.228 9.50395C102.228 10.5702 101.65 11.7556 99.097 11.7556Z"
      fill="white"
  />
  <path
      d="M59.0758 12.301H68.6641V9.50383H59.0758V7.43595H69.3789V3.55762H53.9258C53.9258 3.55762 54.1295 8.04502 54.1295 10.8411C54.1295 13.6372 53.9258 18.1246 53.9258 18.1246H69.7039V14.2463H59.0758V12.301Z"
      fill="white"
  />
  <path
      d="M83.0347 3.55762H76.8119C76.8119 3.55762 76.191 5.60965 73.9827 10.8411C71.7744 16.0726 70.6631 18.1246 70.6631 18.1246H76.4646L77.3273 15.4928H82.5193L83.382 18.1246H89.1835C89.1835 18.1246 88.0722 16.0726 85.8639 10.8411C83.6557 5.60965 83.0347 3.55762 83.0347 3.55762ZM78.1296 13.0448L79.9233 7.57242L81.717 13.0448H78.1296Z"
      fill="white"
  />
  <path
      d="M14.5047 2.12778C10.5348 2.12778 6.6558 1.53929 2.96554 0.40625L0.0556641 9.84128L2.32016 10.4626C2.32016 10.4626 3.15541 9.82329 3.85935 8.55682C4.41075 7.56487 5.33919 5.84345 5.42834 5.6782C6.14915 5.83075 6.87659 5.96542 7.6101 6.08188C7.64382 6.32504 7.90643 8.2144 8.07381 9.31652C8.29134 10.7491 8.85083 11.6398 8.85083 11.6398L11.1897 11.8482C11.1897 11.8482 11.8979 11.0705 12.3652 9.69896C12.7189 8.66058 13.2981 6.88903 13.3892 6.61046C13.7598 6.61979 14.1315 6.62451 14.5045 6.62451C14.8774 6.62451 15.2492 6.61979 15.6199 6.61046C15.7109 6.88903 16.29 8.66069 16.6439 9.69896C17.1112 11.0705 17.8193 11.8482 17.8193 11.8482L20.1584 11.6398C20.1584 11.6398 20.7179 10.7491 20.9354 9.31652C21.1027 8.2144 21.3654 6.32504 21.3991 6.08188C22.1326 5.96542 22.86 5.83075 23.5809 5.6782C23.67 5.84345 24.5984 7.56487 25.1498 8.55682C25.8538 9.82329 26.689 10.4626 26.689 10.4626L28.9535 9.84128L26.0437 0.40625C22.3535 1.53929 18.4744 2.12778 14.5047 2.12778Z"
      fill="white"
  />
  <path
      d="M25.2033 13.2634C25.117 11.817 24.641 10.8791 24.641 10.8791L22.3307 10.4588C22.3307 10.4588 21.5547 11.1688 20.9645 12.4921C20.5091 13.5132 19.7508 15.2727 19.6573 15.4898C18.9253 15.4037 18.1878 15.3357 17.4451 15.2863C17.3899 15.0461 16.9629 13.188 16.6996 12.1051C16.3573 10.6971 15.7219 9.85892 15.7219 9.85892L13.3737 9.85645C13.3737 9.85645 12.7365 10.6933 12.3913 12.1005C12.1254 13.1839 11.6937 15.0441 11.6389 15.2811C10.8966 15.3292 10.1595 15.3958 9.42778 15.4807C9.34234 15.2805 8.58388 13.5043 8.12916 12.4757C7.54336 11.1505 6.76972 10.4379 6.76972 10.4379L4.458 10.8505C4.458 10.8505 3.97878 11.7868 3.88772 13.233C3.81274 14.4236 3.70819 16.5225 3.70819 16.5225L1.63379 17.0872L2.9658 21.4061C6.65595 20.2731 10.5351 19.6846 14.5049 19.6846C18.4748 19.6846 22.3538 20.2731 26.044 21.4061L27.3667 17.1172C27.178 17.0591 26.3044 16.7912 25.372 16.5522C25.3707 16.527 25.2738 14.447 25.2033 13.2634Z"
      fill="white"
  />
</svg>
